<?xml version="1.0" standalone="no"?>
<!DOCTYPE svg PUBLIC "-//W3C//DTD SVG 20010904//EN"
 "http://www.w3.org/TR/2001/REC-SVG-20010904/DTD/svg10.dtd">
<svg version="1.0" xmlns="http://www.w3.org/2000/svg"
 width="500.000000pt" height="500.000000pt" viewBox="0 0 500.000000 500.000000"
 preserveAspectRatio="xMidYMid meet">

<g transform="translate(0.000000,500.000000) scale(0.100000,-0.100000)"
fill="" stroke="none">
<path d="M700 2900 l0 -30 251 0 c234 0 250 -1 245 -17 -2 -10 -7 -33 -11 -50
l-7 -33 -132 0 -133 0 -23 -107 c-12 -60 -25 -114 -27 -120 -4 -10 21 -13 106
-13 121 0 118 2 100 -62 l-10 -38 -109 0 c-105 0 -110 -1 -115 -22 -3 -13 -14
-66 -25 -118 -11 -52 -22 -105 -25 -117 -5 -23 -5 -23 126 -23 l132 0 -7 -37
c-3 -21 -6 -44 -6 -50 0 -10 -40 -13 -165 -13 l-165 0 0 -25 0 -25 225 0 c215
0 225 -1 225 -19 0 -29 60 -45 170 -45 74 0 105 5 141 21 26 11 50 26 53 32 8
13 116 15 116 3 0 -40 74 -65 162 -56 52 6 56 8 60 35 4 25 1 29 -19 29 -40 0
-40 17 -1 203 9 45 11 47 43 47 25 0 34 5 39 23 9 35 8 37 -25 37 -31 0 -31 1
-25 39 3 22 9 46 12 55 5 13 -2 16 -38 16 -38 0 -49 -5 -79 -36 -34 -36 -65
-56 -106 -68 l-23 -7 0 310 0 311 -465 0 -465 0 0 -30z m963 -682 c-3 -18 -12
-55 -19 -83 l-12 -50 -1 83 c-1 75 1 82 19 82 17 0 19 -5 13 -32z m-330 -225
c-7 -2 -21 -2 -30 0 -10 3 -4 5 12 5 17 0 24 -2 18 -5z"/>
<path d="M2741 2398 c-32 -161 -31 -157 -48 -125 -16 32 -51 43 -127 39 -44
-3 -110 -74 -130 -141 -20 -69 -21 -153 -1 -191 29 -56 133 -61 198 -10 32 25
34 25 41 -5 6 -24 10 -25 76 -25 39 0 70 3 70 8 0 10 109 522 116 545 5 15 -3
17 -83 17 l-89 0 -23 -112z m-52 -182 c18 -21 -15 -159 -45 -187 -34 -32 -54
-19 -54 34 0 48 22 130 40 152 16 19 44 19 59 1z"/>
<path d="M3020 2460 c-49 -49 -15 -120 57 -120 40 0 93 45 93 79 0 36 -35 61
-85 61 -32 0 -51 -6 -65 -20z"/>
<path d="M4130 2473 c0 -5 18 -77 40 -161 l39 -154 -23 -109 -24 -109 92 0 91
0 21 103 c21 100 24 107 117 249 133 204 126 188 75 188 l-43 0 -64 -107 -65
-107 -29 107 -29 107 -99 0 c-55 0 -99 -3 -99 -7z"/>
<path d="M3355 2310 c-28 -4 -65 -15 -82 -23 -77 -40 -126 -151 -104 -235 24
-87 76 -117 204 -115 156 1 240 77 241 218 1 49 -4 70 -20 92 -39 54 -133 79
-239 63z m80 -140 c-1 -64 -5 -95 -20 -124 -27 -53 -51 -67 -71 -41 -12 15
-14 34 -8 80 12 104 48 180 83 173 13 -3 16 -19 16 -88z"/>
<path d="M3825 2309 c-103 -14 -150 -53 -150 -124 0 -55 22 -80 92 -102 67
-21 89 -43 73 -72 -19 -37 -80 -21 -80 21 0 15 -9 18 -54 18 -61 0 -61 0 -70
-52 -7 -37 -6 -37 36 -49 56 -16 212 -16 260 0 52 17 88 63 88 111 0 53 -24
77 -105 103 -65 21 -70 24 -70 51 0 36 26 56 49 37 9 -8 16 -22 16 -32 0 -16
8 -19 55 -19 40 0 55 4 55 14 0 7 3 27 6 44 6 27 3 31 -27 40 -49 15 -116 19
-174 11z"/>
<path d="M1975 2298 c-9 -29 -55 -253 -55 -270 0 -40 29 -77 70 -88 46 -12 80
-6 136 26 43 24 54 23 54 -8 0 -17 7 -19 72 -16 l72 3 32 150 c18 83 35 165
39 183 l6 32 -85 0 c-81 0 -86 -1 -91 -22 -3 -13 -16 -74 -30 -137 -24 -110
-39 -140 -72 -141 -29 0 -30 36 -7 150 14 63 25 122 27 130 3 20 -161 28 -168
8z"/>
<path d="M2970 2302 c0 -4 -16 -81 -35 -171 -19 -90 -35 -169 -35 -177 0 -11
19 -14 83 -14 l84 0 37 173 c20 94 36 178 36 185 0 9 -24 12 -85 12 -47 0 -85
-3 -85 -8z"/>
<path d="M4658 2294 c-39 -12 -49 -20 -54 -42 -3 -15 -7 -33 -10 -39 -2 -10
13 -13 57 -13 54 0 60 2 71 25 13 29 53 43 77 28 10 -7 16 -24 16 -49 l0 -39
-85 -6 c-140 -10 -190 -43 -190 -127 0 -92 94 -124 199 -66 24 13 45 24 46 24
2 0 6 -11 9 -25 6 -24 10 -25 74 -25 l68 0 22 108 c36 173 28 218 -44 248 -44
18 -194 17 -256 -2z m138 -206 c-6 -41 -35 -78 -60 -78 -23 0 -38 18 -38 44 0
41 36 74 86 75 16 1 18 -4 12 -41z"/>
</g>
</svg>
